# xmcd CD database file
#
# Track frame offsets:
#	150
#	16009
#	36940
#	58635
#	82738
#	100738
#	117413
#	144675
#	170002
#	185955
#
# Disc length: 2686 seconds
#
# Revision: 2
# Processed by: cddbd v1.5.1PL0 Copyright (c) Steve Scherf et al.
# Submitted via: CDex 1.51
#
DISCID=830a7c0a
DTITLE=Smokin' Joe Kubek Featuring Bnois King - Take Your Best Shot
DYEAR=1998
DGENRE=Blues
TTITLE0=Roll of the Dice
TTITLE1=Worst Heartache
TTITLE2=Take Your Best Shot
TTITLE3=Walk On
TTITLE4=Spanish Trace
TTITLE5=Damn Traffic
TTITLE6=You Said "I Love You" First
TTITLE7=One Night Affair
TTITLE8=So Blind
TTITLE9=Never Enough
EXTD=YEAR: 1998
EXTT0=
EXTT1=
EXTT2=
EXTT3=
EXTT4=
EXTT5=
EXTT6=
EXTT7=
EXTT8=
EXTT9=
PLAYORDER=
